<svg id="Layer_1" data-name="Layer 1" xmlns="http://www.w3.org/2000/svg" xmlns:xlink="http://www.w3.org/1999/xlink" viewBox="0 0 2000 2000"><defs><clipPath id="clip-path"><rect width="2000" height="2000" style="fill:none"/></clipPath></defs><rect width="2000" height="2000" style="fill:#999"/><g style="clip-path:url(#clip-path)"><path d="M1483,172.14c185.85,763.21-63,1581.72-637.34,2120.49C389,2722.65-243,2939.34-868.41,2872c-267.25-28.35-526.19-106.12-766.13-229.86C-3013.35,1923.74-3248.41,33.23-2073.75-991.08a2179,2179,0,0,1,269.28-198.65c13.78-8.4,34.62-21,48.44-29.29,14-8,35-20.14,49-28l12.41-6.71,24.78-13.38c14-7.7,35.68-18.21,50.1-25.55,19.29-9.67,43.72-20.92,63.32-30.07C-299.39-1888.92,1159.83-1160.9,1483,172.14ZM1271.86-27.06c-263.64-1092-1474.8-1649-2461.54-1094.2a1711,1711,0,0,0-241.11,166c-16.89,14.14-36.19,30.62-52.5,45.49-8.23,7.13-20.89,19.12-29.07,26.67-4.36,3.94-10.16,9.44-14.28,13.53a1741.45,1741.45,0,0,0-150.29,165.47c-9.47,12.69-20,25.22-29.3,38.06-6.72,9.1-16.3,21.7-22.59,30.9-678.27,952.86-241,2267.42,871.36,2627.35,14.41,4.54,32.66,10.12,47.19,14.06,8.82,2.53,19.66,5.79,28.59,8,21.31,5.79,46.07,11.72,67.58,16.61,15,3,33.93,7.34,49,9.93,21.93,4.33,47.36,8.49,69.42,11.92,11.2,1.49,28.91,3.9,40.1,5.4,11.28,1.22,29.13,3.14,40.4,4.44,11.35,1,29.31,2.53,40.66,3.54,188.18,13.93,379.33-4.87,562-53.8C973,1769.86,1486.6,860.25,1271.86-27.06Z" style="fill:#101010"/></g></svg>