<?xml version="1.0" encoding="utf-8"?>
<!-- Generator: Adobe Illustrator 26.0.1, SVG Export Plug-In . SVG Version: 6.00 Build 0)  -->
<svg version="1.1" id="Layer_1" xmlns="http://www.w3.org/2000/svg" xmlns:xlink="http://www.w3.org/1999/xlink" x="0px" y="0px"
	 viewBox="0 0 2000 2000" style="enable-background:new 0 0 2000 2000;" xml:space="preserve">
<style type="text/css">
	.st0{fill:#F59E0B;}
	.st1{clip-path:url(#SVGID_00000140711652472633269930000010223196241061938832_);}
</style>
<rect y="0" class="st0" width="2000" height="2000"/>
<g>
	<defs>
		<rect id="SVGID_1_" y="0" width="2000" height="2000"/>
	</defs>
	<clipPath id="SVGID_00000083048291893729635180000008124124203105490865_">
		<use xlink:href="#SVGID_1_"  style="overflow:visible;"/>
	</clipPath>
	<path style="clip-path:url(#SVGID_00000083048291893729635180000008124124203105490865_);" d="M1483,172.1
		c185.9,763.2-63,1581.7-637.3,2120.5C389,2722.7-243,2939.3-868.4,2872c-267.3-28.4-526.2-106.1-766.1-229.9
		C-3013.3,1923.7-3248.4,33.2-2073.8-991.1c84.4-72.8,174.8-139.7,269.3-198.7c13.8-8.4,34.6-21,48.4-29.3c14-8,35-20.1,49-28
		c0,0,12.4-6.7,12.4-6.7l24.8-13.4c14-7.7,35.7-18.2,50.1-25.6c19.3-9.7,43.7-20.9,63.3-30.1
		C-299.4-1888.9,1159.8-1160.9,1483,172.1L1483,172.1z M1271.9-27.1c-263.6-1092-1474.8-1649-2461.5-1094.2
		c-84.7,48-166.3,104.5-241.1,166c-16.9,14.1-36.2,30.6-52.5,45.5c-8.2,7.1-20.9,19.1-29.1,26.7c-4.4,3.9-10.2,9.4-14.3,13.5
		c-53.5,51.6-103.9,107.4-150.3,165.5c-9.5,12.7-20,25.2-29.3,38.1c-6.7,9.1-16.3,21.7-22.6,30.9
		c-678.3,952.9-241,2267.4,871.4,2627.4c14.4,4.5,32.7,10.1,47.2,14.1c8.8,2.5,19.7,5.8,28.6,8c21.3,5.8,46.1,11.7,67.6,16.6
		c15,3,33.9,7.3,49,9.9c21.9,4.3,47.4,8.5,69.4,11.9c11.2,1.5,28.9,3.9,40.1,5.4c11.3,1.2,29.1,3.1,40.4,4.4
		c11.4,1,29.3,2.5,40.7,3.5c188.2,13.9,379.3-4.9,562-53.8C973,1769.9,1486.6,860.2,1271.9-27.1L1271.9-27.1z"/>
</g>
</svg>
